<svg width="24" height="24" viewBox="0 0 24 24" fill="none" xmlns="http://www.w3.org/2000/svg">
<path d="M18 18.75H15.75V16.5H18V18.75ZM21.75 16.5H19.5V18.75H21.75V16.5ZM18 20.25H15.75V22.5H18V20.25ZM21.75 20.25H19.5V22.5H21.75V20.25ZM15 6H9V7.5H15V6ZM12.75 21H4.5V18H6V16.5H4.5V12.75H6V11.25H4.5V7.5H6V6H4.5V3H18V14.25H19.5V3C19.5 2.175 18.825 1.5 18 1.5H4.5C3.675 1.5 3 2.175 3 3V6H1.5V7.5H3V11.25H1.5V12.75H3V16.5H1.5V18H3V21C3 21.825 3.675 22.5 4.5 22.5H12.75V21ZM15 11.25H9V12.75H15V11.25Z" fill="#E53935"/>
</svg>
