<svg width="24" height="24" viewBox="0 0 24 24" fill="none" xmlns="http://www.w3.org/2000/svg">
<path d="M15 7.5H9V6H15V7.5ZM12.75 21H4.5V18H6V16.5H4.5V12.75H6V11.25H4.5V7.5H6V6H4.5V3H18V14.25H19.5V3C19.5 2.175 18.825 1.5 18 1.5H4.5C3.675 1.5 3 2.175 3 3V6H1.5V7.5H3V11.25H1.5V12.75H3V16.5H1.5V18H3V21C3 21.825 3.675 22.5 4.5 22.5H12.75V21ZM15 11.25H9V12.75H15V11.25ZM17.55 18.225L14.775 18.6L16.8 20.55L16.275 23.25L18.825 21.975L21.225 23.25L20.7 20.55L22.725 18.6L20.025 18.225L18.75 15.75L17.55 18.225Z" fill="#388E3C"/>
</svg>
