<svg width="48" height="48" viewBox="0 0 48 48" fill="none" xmlns="http://www.w3.org/2000/svg">
<rect x="0.5" y="0.5" width="47" height="47" rx="23.5" stroke="#E53935"/>
<path d="M30 27.75H27.75V25.5H30V27.75ZM33.75 25.5H31.5V27.75H33.75V25.5ZM30 29.25H27.75V31.5H30V29.25ZM33.75 29.25H31.5V31.5H33.75V29.25ZM27 15H21V16.5H27V15ZM24.75 30H16.5V27H18V25.5H16.5V21.75H18V20.25H16.5V16.5H18V15H16.5V12H30V23.25H31.5V12C31.5 11.175 30.825 10.5 30 10.5H16.5C15.675 10.5 15 11.175 15 12V15H13.5V16.5H15V20.25H13.5V21.75H15V25.5H13.5V27H15V30C15 30.825 15.675 31.5 16.5 31.5H24.75V30ZM27 20.25H21V21.75H27V20.25Z" fill="#E53935"/>
</svg>
