<svg width="48" height="48" viewBox="0 0 48 48" fill="none" xmlns="http://www.w3.org/2000/svg">
<rect x="0.5" y="0.5" width="47" height="47" rx="23.5" stroke="#757575"/>
<path d="M27 16.5H21V15H27V16.5ZM24 30H16.5V27H18V25.5H16.5V21.75H18V20.25H16.5V16.5H18V15H16.5V12H30V24.75H31.5V12C31.5 11.175 30.825 10.5 30 10.5H16.5C15.675 10.5 15 11.175 15 12V15H13.5V16.5H15V20.25H13.5V21.75H15V25.5H13.5V27H15V30C15 30.825 15.675 31.5 16.5 31.5H24V30ZM27 20.25H21V21.75H27V20.25ZM29.25 29.4L27.3 27.45L26.25 28.5L29.25 31.5L34.5 26.25L33.45 25.2L29.25 29.4Z" fill="#757575"/>
</svg>
