<svg width="48" height="48" viewBox="0 0 48 48" fill="none" xmlns="http://www.w3.org/2000/svg">
<rect x="0.5" y="0.5" width="47" height="47" rx="23.5" stroke="#FFB74D"/>
<path d="M27 27.75H32.25V29.25H27V27.75ZM28.5 30.75H30.75V32.25H28.5V30.75ZM32.25 26.25H30.75C30.75 25.425 31.05 24.75 31.65 24.15L32.025 23.775C32.625 23.175 33 22.275 33 21.375C33 19.5 31.5 18 29.625 18C27.75 18 26.25 19.5 26.25 21.375C26.25 22.275 26.625 23.1 27.225 23.775L27.6 24.15C28.2 24.75 28.5 25.425 28.5 26.25H27C27 25.875 26.85 25.5 26.55 25.2L26.175 24.825C25.275 23.925 24.75 22.65 24.75 21.375C24.75 18.675 26.925 16.5 29.625 16.5C32.325 16.5 34.5 18.675 34.5 21.375C34.5 22.65 33.975 23.925 33.075 24.825L32.7 25.2C32.4 25.5 32.25 25.875 32.25 26.25ZM16.5 25.5H22.5V27H16.5V25.5Z" fill="#FFB74D"/>
<path d="M21 24C21.4142 24 21.75 23.6642 21.75 23.25C21.75 22.8358 21.4142 22.5 21 22.5C20.5858 22.5 20.25 22.8358 20.25 23.25C20.25 23.6642 20.5858 24 21 24Z" fill="#FFB74D"/>
<path d="M16.5 22.5H18.75V24H16.5V22.5ZM16.5 19.5H21.75V21H16.5V19.5ZM19.5 16.5H24.75V18H19.5V16.5Z" fill="#FFB74D"/>
<path d="M17.25 18C17.6642 18 18 17.6642 18 17.25C18 16.8358 17.6642 16.5 17.25 16.5C16.8358 16.5 16.5 16.8358 16.5 17.25C16.5 17.6642 16.8358 18 17.25 18Z" fill="#FFB74D"/>
<path d="M24 13.5H27V15H24V13.5Z" fill="#FFB74D"/>
<path d="M21.75 15C22.1642 15 22.5 14.6642 22.5 14.25C22.5 13.8358 22.1642 13.5 21.75 13.5C21.3358 13.5 21 13.8358 21 14.25C21 14.6642 21.3358 15 21.75 15Z" fill="#FFB74D"/>
<path d="M16.5 13.5H19.5V15H16.5V13.5Z" fill="#FFB74D"/>
<path d="M25.5 30H15V12H28.5V15H30V12C30 11.175 29.325 10.5 28.5 10.5H15C14.175 10.5 13.5 11.175 13.5 12V30C13.5 30.825 14.175 31.5 15 31.5H25.5V30Z" fill="#FFB74D"/>
</svg>
