<svg width="128" height="48" viewBox="0 0 128 48" fill="none" xmlns="http://www.w3.org/2000/svg">
<path d="M29.2785 20.168H21.3105V17.128H29.2785C29.3425 17.128 29.4172 17.1493 29.5025 17.192L29.4385 20.232L29.2785 20.168ZM25.4065 12.68L27.5825 14.824L25.4065 16.968L23.2625 14.824L25.4065 12.68ZM18.6865 32.552C18.3878 34.1307 17.6412 35.5067 16.4465 36.68C14.8465 38.2587 12.9478 39.048 10.7505 39.048H9.7265C7.4865 39.048 5.57717 38.2587 3.9985 36.68C2.44117 35.1227 1.6625 33.224 1.6625 30.984V26.056L5.0225 25.48V30.984C5.0225 32.2853 5.48117 33.3947 6.3985 34.312C7.31583 35.2293 8.42517 35.688 9.7265 35.688H10.7505C12.5852 35.688 14.1532 35.2827 15.4545 34.472V23.912L18.8145 23.368V27.624C18.8145 28.1787 19.0065 28.6587 19.3905 29.064C19.7745 29.448 20.2545 29.64 20.8305 29.64H21.7905C22.4945 29.64 23.1665 29.5653 23.8065 29.416V24.52L27.1665 24.168V27.624C27.1665 28.1787 27.3585 28.6587 27.7425 29.064C28.1478 29.448 28.6278 29.64 29.1825 29.64H29.8865C30.5905 29.64 31.2625 29.5653 31.9025 29.416V22.984L35.2625 22.408V27.624C35.2625 28.1787 35.4545 28.6587 35.8385 29.064C36.2438 29.448 36.7238 29.64 37.2785 29.64H37.6945L38.4305 30.056V32.584L37.6945 33H37.2785C35.8492 33 34.6225 32.5093 33.5985 31.528C32.5745 32.5093 31.3372 33 29.8865 33H29.1825C27.7532 33 26.5265 32.5093 25.5025 31.528C24.4785 32.5093 23.2412 33 21.7905 33H20.8305C20.0412 33 19.3265 32.8507 18.6865 32.552ZM43.0635 29.64L43.7995 30.056V32.584L43.0635 33H37.6875L36.9515 32.584V30.056L37.6875 29.64H43.0635ZM43.0625 33L42.3265 32.584V30.056L43.0625 29.64H44.1505C45.0038 29.64 45.8572 29.512 46.7105 29.256V22.984L50.0705 22.408V27.016C50.0705 28.6587 49.4945 30.0667 48.3425 31.24C47.2118 32.4133 45.8145 33 44.1505 33H43.0625ZM48.3425 16.68L50.4865 18.824L48.3425 21L46.1985 18.824L48.3425 16.68ZM56.6163 13.128V32.712L53.2563 33V13.704L56.6163 13.128ZM64.2668 20.072L68.8108 24.776C69.8348 25.8213 70.3468 26.984 70.3468 28.264C70.3468 29.4587 69.7921 30.5467 68.6828 31.528C67.5948 32.5093 66.2934 33 64.7788 33H59.7228L59.1788 29.64H64.7788C65.6108 29.64 66.4534 29.5013 67.3068 29.224C67.3068 28.3493 66.9974 27.5813 66.3788 26.92L61.8668 22.408L64.2668 20.072Z" fill="#FF5722"/>
<path d="M87 12H84M124 12H121M95 20H93C90.172 20 88.758 20 87.88 19.12C87 18.244 87 16.83 87 14C87 11.17 87 9.758 87.88 8.88C88.756 8 90.17 8 93 8H95C97.828 8 99.242 8 100.12 8.88C101 9.758 101 11.172 101 14C101 16.828 101 18.242 100.12 19.12C99.244 20 97.83 20 95 20Z" stroke="#FF5722" stroke-width="3" stroke-linecap="round" stroke-linejoin="round"/>
<path d="M122 29.5C122.398 29.5 122.779 29.342 123.061 29.0607C123.342 28.7794 123.5 28.3978 123.5 28C123.5 27.6022 123.342 27.2206 123.061 26.9393C122.779 26.658 122.398 26.5 122 26.5V29.5ZM122 41.5C122.398 41.5 122.779 41.342 123.061 41.0607C123.342 40.7794 123.5 40.3978 123.5 40C123.5 39.6022 123.342 39.2206 123.061 38.9393C122.779 38.658 122.398 38.5 122 38.5V41.5ZM120 41.5C120.398 41.5 120.779 41.342 121.061 41.0607C121.342 40.7794 121.5 40.3978 121.5 40C121.5 39.6022 121.342 39.2206 121.061 38.9393C120.779 38.658 120.398 38.5 120 38.5V41.5ZM120 29.5C120.398 29.5 120.779 29.342 121.061 29.0607C121.342 28.7794 121.5 28.3978 121.5 28C121.5 27.6022 121.342 27.2206 121.061 26.9393C120.779 26.658 120.398 26.5 120 26.5V29.5ZM84.5 34C84.5 34.912 84.5 35.67 84.54 36.29C84.584 36.924 84.676 37.524 84.918 38.104L87.69 36.956C87.626 36.802 87.568 36.568 87.534 36.086C87.5013 35.3912 87.49 34.6955 87.5 34H84.5ZM92 38.5C91.048 38.5 90.408 38.5 89.914 38.466C89.432 38.432 89.198 38.374 89.044 38.31L87.896 41.082C88.476 41.322 89.076 41.416 89.71 41.458C90.33 41.5 91.09 41.5 92 41.5V38.5ZM84.918 38.104C85.1942 38.7715 85.6011 39.3781 86.1118 39.889C86.6224 40.4 87.2287 40.8054 87.896 41.082L89.044 38.31C88.7404 38.1844 88.4646 38.0001 88.2322 37.7678C87.9999 37.5354 87.8156 37.2596 87.69 36.956L84.918 38.104ZM92 26.5C91.088 26.5 90.33 26.5 89.71 26.54C89.0884 26.565 88.4754 26.6935 87.896 26.92L89.044 29.69C89.198 29.626 89.432 29.568 89.914 29.534C90.6088 29.5013 91.3045 29.49 92 29.5V26.5ZM87.5 34C87.5 33.048 87.5 32.408 87.534 31.914C87.568 31.432 87.626 31.198 87.69 31.044L84.918 29.896C84.678 30.476 84.584 31.076 84.542 31.71C84.5 32.33 84.5 33.09 84.5 34H87.5ZM87.896 26.92C87.2285 27.1962 86.6219 27.6011 86.111 28.1118C85.6 28.6224 85.1946 29.2287 84.918 29.896L87.69 31.044C87.944 30.43 88.43 29.944 89.044 29.69L87.896 26.92ZM122 26.5H92V29.5H122V26.5ZM92 41.5H122V38.5H92V41.5ZM120 38.5C119.552 38.5 118.964 38.228 118.42 37.41C117.88 36.604 117.5 35.402 117.5 34H114.5C114.5 35.912 115.014 37.71 115.924 39.074C116.826 40.428 118.238 41.5 120 41.5V38.5ZM117.5 34C117.5 32.598 117.88 31.396 118.42 30.59C118.964 29.77 119.552 29.5 120 29.5V26.5C118.238 26.5 116.826 27.572 115.924 28.926C115.014 30.29 114.5 32.088 114.5 34H117.5Z" fill="#FF5722"/>
<path d="M107 12C107 11.2044 106.684 10.4413 106.121 9.87868C105.559 9.31607 104.796 9 104 9C103.204 9 102.441 9.31607 101.879 9.87868C101.316 10.4413 101 11.2044 101 12M113 20H115C117.828 20 119.242 20 120.12 19.12C121 18.242 121 16.828 121 14C121 11.172 121 9.758 120.12 8.88C119.244 8 117.83 8 115 8H113C110.172 8 108.758 8 107.88 8.88C107 9.758 107 11.172 107 14C107 16.828 107 18.242 107.88 19.12C108.758 20 110.172 20 113 20Z" stroke="#FF5722" stroke-width="3" stroke-linecap="round" stroke-linejoin="round"/>
</svg>
