<svg width="24" height="24" viewBox="0 0 24 24" fill="none" xmlns="http://www.w3.org/2000/svg">
<path d="M17.55 9.175L21.075 5.625C21.275 5.425 21.5127 5.325 21.788 5.325C22.0633 5.325 22.3007 5.425 22.5 5.625C22.6993 5.825 22.7993 6.06267 22.8 6.338C22.8007 6.61333 22.7007 6.85067 22.5 7.05L18.25 11.3C18.05 11.5 17.8167 11.6 17.55 11.6C17.2833 11.6 17.05 11.5 16.85 11.3L14.725 9.175C14.525 8.975 14.425 8.73767 14.425 8.463C14.425 8.18833 14.525 7.95067 14.725 7.75C14.925 7.54933 15.1583 7.44933 15.425 7.45C15.6917 7.45067 15.925 7.55067 16.125 7.75L17.55 9.175ZM9 12C7.9 12 6.95833 11.6083 6.175 10.825C5.39167 10.0417 5 9.1 5 8C5 6.9 5.39167 5.95833 6.175 5.175C6.95833 4.39167 7.9 4 9 4C10.1 4 11.0417 4.39167 11.825 5.175C12.6083 5.95833 13 6.9 13 8C13 9.1 12.6083 10.0417 11.825 10.825C11.0417 11.6083 10.1 12 9 12ZM1 18V17.2C1 16.6333 1.146 16.1127 1.438 15.638C1.73 15.1633 2.11733 14.8007 2.6 14.55C3.63333 14.0333 4.68333 13.646 5.75 13.388C6.81667 13.13 7.9 13.0007 9 13C10.1 12.9993 11.1833 13.1287 12.25 13.388C13.3167 13.6473 14.3667 14.0347 15.4 14.55C15.8833 14.8 16.271 15.1627 16.563 15.638C16.855 16.1133 17.0007 16.634 17 17.2V18C17 18.55 16.8043 19.021 16.413 19.413C16.0217 19.805 15.5507 20.0007 15 20H3C2.45 20 1.97933 19.8043 1.588 19.413C1.19667 19.0217 1.00067 18.5507 1 18ZM3 18H15V17.2C15 17.0167 14.9543 16.85 14.863 16.7C14.7717 16.55 14.6507 16.4333 14.5 16.35C13.6 15.9 12.6917 15.5627 11.775 15.338C10.8583 15.1133 9.93333 15.0007 9 15C8.06667 14.9993 7.14167 15.112 6.225 15.338C5.30833 15.564 4.4 15.9013 3.5 16.35C3.35 16.4333 3.229 16.55 3.137 16.7C3.045 16.85 2.99933 17.0167 3 17.2V18ZM9 10C9.55 10 10.021 9.80433 10.413 9.413C10.805 9.02167 11.0007 8.55067 11 8C10.9993 7.44933 10.8037 6.97867 10.413 6.588C10.0223 6.19733 9.55133 6.00133 9 6C8.44867 5.99867 7.978 6.19467 7.588 6.588C7.198 6.98133 7.002 7.452 7 8C6.998 8.548 7.194 9.019 7.588 9.413C7.982 9.807 8.45267 10.0027 9 10Z" fill="#212121"/>
</svg>
