<svg width="24" height="24" viewBox="0 0 24 24" fill="none" xmlns="http://www.w3.org/2000/svg">
<path d="M5 4V10.025V10V20V4ZM7 14H10.5C10.65 13.6167 10.8333 13.2583 11.05 12.925C11.2667 12.5917 11.5167 12.2833 11.8 12H7V14ZM7 18H10.175C10.0917 17.6667 10.0377 17.3333 10.013 17C9.98833 16.6667 9.99233 16.3333 10.025 16H7V18ZM5 22C4.45 22 3.97933 21.8043 3.588 21.413C3.19667 21.0217 3.00067 20.5507 3 20V4C3 3.45 3.196 2.97933 3.588 2.588C3.98 2.19667 4.45067 2.00067 5 2H13L19 8V10.5C18.6833 10.3667 18.3583 10.2627 18.025 10.188C17.6917 10.1133 17.35 10.059 17 10.025V9H12V4H5V20H11.025C11.2917 20.4 11.5917 20.771 11.925 21.113C12.2583 21.455 12.625 21.7507 13.025 22H5ZM16.5 19C17.2 19 17.7917 18.7583 18.275 18.275C18.7583 17.7917 19 17.2 19 16.5C19 15.8 18.7583 15.2083 18.275 14.725C17.7917 14.2417 17.2 14 16.5 14C15.8 14 15.2083 14.2417 14.725 14.725C14.2417 15.2083 14 15.8 14 16.5C14 17.2 14.2417 17.7917 14.725 18.275C15.2083 18.7583 15.8 19 16.5 19ZM21.6 23L18.9 20.3C18.55 20.5333 18.171 20.7083 17.763 20.825C17.355 20.9417 16.934 21 16.5 21C15.25 21 14.1877 20.5627 13.313 19.688C12.4383 18.8133 12.0007 17.7507 12 16.5C11.9993 15.2493 12.437 14.187 13.313 13.313C14.189 12.439 15.2513 12.0013 16.5 12C17.7487 11.9987 18.8113 12.4363 19.688 13.313C20.5647 14.1897 21.002 15.252 21 16.5C21 16.9333 20.9417 17.3543 20.825 17.763C20.7083 18.1717 20.5333 18.5507 20.3 18.9L23 21.6L21.6 23Z" fill="currentColor" />
</svg>
