<?xml version="1.0" encoding="utf-8"?>
<!-- Generator: Adobe Illustrator 25.4.1, SVG Export Plug-In . SVG Version: 6.00 Build 0)  -->
<svg version="1.1" width="24" height="24" xmlns="http://www.w3.org/2000/svg" xmlns:xlink="http://www.w3.org/1999/xlink" x="0px" y="0px"
	 viewBox="0 0 24 24" style="enable-background:new 0 0 24 24;" xml:space="preserve">
<path d="M7.1,18c0.3,0,0.6-0.1,0.9-0.3c0.2-0.2,0.3-0.5,0.3-0.9c0-0.3-0.1-0.6-0.3-0.9c-0.2-0.2-0.5-0.3-0.9-0.3s-0.6,0.1-0.9,0.3
	c-0.2,0.2-0.3,0.5-0.3,0.9c0,0.3,0.1,0.6,0.3,0.9C6.5,17.8,6.7,18,7.1,18z M7.1,13.1c0.3,0,0.6-0.1,0.9-0.3c0.2-0.2,0.3-0.5,0.3-0.9
	c0-0.3-0.1-0.6-0.3-0.9c-0.2-0.2-0.5-0.3-0.9-0.3s-0.6,0.1-0.9,0.3s-0.3,0.5-0.3,0.9c0,0.3,0.1,0.6,0.3,0.9
	C6.5,13,6.7,13.1,7.1,13.1z M7.1,8.3c0.3,0,0.6-0.1,0.9-0.3c0.2-0.2,0.3-0.5,0.3-0.9c0-0.3-0.1-0.6-0.3-0.9C7.7,6,7.4,5.9,7.1,5.9
	S6.5,6,6.2,6.2S5.9,6.7,5.9,7.1c0,0.3,0.1,0.6,0.3,0.9C6.5,8.2,6.7,8.3,7.1,8.3z M10.7,18H18v-2.4h-7.2V18z M10.7,13.1H18v-2.4h-7.2
	V13.1z M10.7,8.3H18V5.9h-7.2V8.3z M3.5,22.8c-0.7,0-1.2-0.2-1.7-0.7S1,21,1,20.4V3.5c0-0.7,0.2-1.2,0.7-1.7S2.8,1,3.5,1h16.9
	c0.7,0,1.2,0.2,1.7,0.7s0.7,1,0.7,1.7v16.9c0,0.7-0.2,1.2-0.7,1.7s-1,0.7-1.7,0.7H3.5z M3.5,20.4h16.9V3.5H3.5V20.4z" fill="currentColor"/>
</svg>
