<svg width="24" height="24" viewBox="0 0 24 24" fill="none" xmlns="http://www.w3.org/2000/svg">
<path d="M6.85 15C7.36667 15 7.82934 14.85 8.238 14.55C8.64667 14.25 8.934 13.8583 9.1 13.375L9.475 12.225C9.74167 11.425 9.675 10.6877 9.275 10.013C8.875 9.33833 8.3 9.00067 7.55 9H4.025L4.5 12.925C4.58334 13.5083 4.846 14 5.288 14.4C5.73 14.8 6.25067 15 6.85 15ZM17.15 15C17.75 15 18.271 14.8 18.713 14.4C19.155 14 19.4173 13.5083 19.5 12.925L19.975 9H16.475C15.725 9 15.15 9.34167 14.75 10.025C14.35 10.7083 14.2833 11.45 14.55 12.25L14.9 13.375C15.0667 13.8583 15.3543 14.25 15.763 14.55C16.1717 14.85 16.634 15 17.15 15ZM6.85 17C5.75 17 4.78767 16.6373 3.963 15.912C3.13834 15.1867 2.659 14.2743 2.525 13.175L2 9C1.71667 9 1.47934 8.904 1.288 8.712C1.09667 8.52 1.00067 8.28267 1 8C0.999337 7.71734 1.09534 7.48 1.288 7.288C1.48067 7.096 1.718 7 2 7H7.55C8.28334 7 8.95434 7.17934 9.563 7.538C10.1717 7.89667 10.6507 8.384 11 9H13.025C13.375 8.38334 13.8543 7.89567 14.463 7.537C15.0717 7.17834 15.7423 6.99934 16.475 7H22C22.2833 7 22.521 7.096 22.713 7.288C22.905 7.48 23.0007 7.71734 23 8C22.9993 8.28267 22.9033 8.52034 22.712 8.713C22.5207 8.90567 22.2833 9.00134 22 9L21.475 13.175C21.3417 14.275 20.8627 15.1877 20.038 15.913C19.2133 16.6383 18.2507 17.0007 17.15 17C16.2 17 15.346 16.7293 14.588 16.188C13.83 15.6467 13.3007 14.9257 13 14.025L12.625 12.9C12.5917 12.7833 12.5583 12.6623 12.525 12.537C12.4917 12.4117 12.4583 12.2327 12.425 12H11.575C11.5417 12.2 11.5083 12.3627 11.475 12.488C11.4417 12.6133 11.4083 12.734 11.375 12.85L11 14C10.7 14.9 10.171 15.625 9.413 16.175C8.655 16.725 7.80067 17 6.85 17Z" fill="#212121"/>
</svg>
