<svg width="24" height="24" viewBox="0 0 24 24" fill="none" xmlns="http://www.w3.org/2000/svg">
<path d="M2 19V17H12V19H2ZM2 14V12H7V14H2ZM2 9V7H7V9H2ZM20.6 19L16.75 15.15C16.35 15.4333 15.9127 15.646 15.438 15.788C14.9633 15.93 14.484 16.0007 14 16C12.6167 16 11.4377 15.5123 10.463 14.537C9.48833 13.5617 9.00067 12.3827 9 11C8.99933 9.61733 9.487 8.43833 10.463 7.463C11.439 6.48767 12.618 6 14 6C15.382 6 16.5613 6.48767 17.538 7.463C18.5147 8.43833 19.002 9.61733 19 11C19 11.4833 18.929 11.9627 18.787 12.438C18.645 12.9133 18.4327 13.3507 18.15 13.75L22 17.6L20.6 19ZM14 14C14.8333 14 15.5417 13.7083 16.125 13.125C16.7083 12.5417 17 11.8333 17 11C17 10.1667 16.7083 9.45833 16.125 8.875C15.5417 8.29167 14.8333 8 14 8C13.1667 8 12.4583 8.29167 11.875 8.875C11.2917 9.45833 11 10.1667 11 11C11 11.8333 11.2917 12.5417 11.875 13.125C12.4583 13.7083 13.1667 14 14 14Z" fill="currentColor" />
</svg>
