<svg width="24" height="24" viewBox="0 0 24 24" fill="none" xmlns="http://www.w3.org/2000/svg">
<path d="M7.02872 2.076C7.64586 2.67771 8.01101 3.48857 8.05558 4.34743L11.179 1.23943C11.2867 1.11976 11.4184 1.02407 11.5654 0.95857C11.7125 0.89307 11.8717 0.859222 12.0327 0.859222C12.1937 0.859222 12.3529 0.89307 12.5 0.95857C12.6471 1.02407 12.7787 1.11976 12.8864 1.23943L15.415 3.87085C15.0527 4.04571 14.7282 4.27314 14.4413 4.55314C13.8262 5.2209 13.4932 6.10059 13.5117 7.00825C13.5303 7.91592 13.899 8.78126 14.5409 9.42332C15.1827 10.0654 16.0479 10.4344 16.9556 10.4533C17.8632 10.4722 18.743 10.1394 19.411 9.52457C19.6887 9.23828 19.9202 8.90743 20.095 8.54914L22.759 11.1806C22.8787 11.2883 22.9744 11.4199 23.0399 11.567C23.1054 11.7141 23.1392 11.8733 23.1392 12.0343C23.1392 12.1953 23.1054 12.3545 23.0399 12.5016C22.9744 12.6486 22.8787 12.7803 22.759 12.888L19.651 15.9463C20.3246 15.9868 20.9721 16.221 21.5157 16.6208C22.0593 17.0206 22.4758 17.5689 22.7152 18.1998C22.9546 18.8307 23.0066 19.5173 22.865 20.177C22.7235 20.8368 22.3943 21.4416 21.9172 21.9187C21.44 22.3959 20.8352 22.725 20.1755 22.8666C19.5157 23.0082 18.8291 22.9561 18.1982 22.7167C17.5673 22.4774 17.019 22.0608 16.6193 21.5172C16.2195 20.9736 15.9852 20.3261 15.9447 19.6526L12.8179 22.7606C12.7102 22.8802 12.5785 22.9759 12.4314 23.0414C12.2844 23.1069 12.1252 23.1408 11.9642 23.1408C11.8032 23.1408 11.6439 23.1069 11.4969 23.0414C11.3498 22.9759 11.2181 22.8802 11.1104 22.7606L8.58187 20.1309C8.94187 19.956 9.27101 19.7246 9.55558 19.4451C9.91855 19.0811 10.1976 18.6422 10.373 18.159C10.5485 17.6758 10.6162 17.1601 10.5715 16.648C10.5267 16.1359 10.3705 15.6398 10.1138 15.1944C9.85711 14.749 9.50615 14.3652 9.0855 14.0697C8.66486 13.7742 8.18469 13.5743 7.67865 13.4839C7.1726 13.3935 6.65292 13.4148 6.15599 13.5464C5.65906 13.678 5.1969 13.9166 4.8019 14.2456C4.4069 14.5746 4.0886 14.9859 3.86929 15.4509L1.23958 12.8194C1.11991 12.7117 1.02422 12.5801 0.958723 12.433C0.893223 12.2859 0.859375 12.1267 0.859375 11.9657C0.859375 11.8047 0.893223 11.6455 0.958723 11.4984C1.02422 11.3514 1.11991 11.2197 1.23958 11.112L4.34758 8.05371C3.48889 8.00946 2.67818 7.64418 2.07615 7.03028C1.75085 6.70498 1.4928 6.31879 1.31675 5.89376C1.1407 5.46873 1.05008 5.01319 1.05008 4.55314C1.05008 4.09309 1.1407 3.63755 1.31675 3.21252C1.4928 2.78749 1.75085 2.4013 2.07615 2.076C2.40145 1.75069 2.78764 1.49265 3.21267 1.3166C3.6377 1.14054 4.09325 1.04993 4.55329 1.04993C5.01334 1.04993 5.46888 1.14055 5.89391 1.3166C6.31894 1.49265 6.70342 1.75069 7.02872 2.076Z" stroke="#1E1E1E" stroke-width="1.71429" stroke-linecap="round" stroke-linejoin="round"/>
</svg>
