<svg width="20" height="18" viewBox="0 0 20 18" fill="none" xmlns="http://www.w3.org/2000/svg">
<path d="M9.9998 3.02101C9.99993 2.62425 9.92188 2.23135 9.77011 1.86476C9.61834 1.49818 9.39582 1.1651 9.11526 0.884543C8.83471 0.603991 8.50163 0.381471 8.13504 0.229698C7.76846 0.0779252 7.37556 -0.00012552 6.9788 5.87897e-06H4.0208C3.62084 -0.00513993 3.22384 0.0691928 2.85283 0.218691C2.48183 0.368189 2.1442 0.589876 1.85955 0.87089C1.5749 1.1519 1.34889 1.48665 1.19463 1.8557C1.04037 2.22475 0.960938 2.62076 0.960938 3.02076C0.960938 3.42075 1.04037 3.81676 1.19463 4.18581C1.34889 4.55486 1.5749 4.88961 1.85955 5.17062C2.1442 5.45163 2.48183 5.67332 2.85283 5.82282C3.22384 5.97232 3.62084 6.04665 4.0208 6.04151H4.5998V7.50001C4.5998 7.50001 9.9998 6.77101 9.9998 3.02101ZM7.2498 11C7.2498 12.105 6.3548 13 5.2498 13C4.1448 13 3.2498 12.105 3.2498 11C3.2498 9.89501 4.1448 9.00001 5.2498 9.00001C6.3548 9.00001 7.2498 9.89501 7.2498 11ZM5.2498 14C3.8313 14 0.999802 14.715 0.999802 16.1335V18H9.4998V16.1335C9.4998 14.7145 6.6683 14 5.2498 14ZM14.7498 13C15.8548 13 16.7498 12.105 16.7498 11C16.7498 9.89501 15.8548 9.00001 14.7498 9.00001C13.6448 9.00001 12.7498 9.89501 12.7498 11C12.7498 12.105 13.6448 13 14.7498 13ZM14.7498 14C13.3313 14 10.4998 14.715 10.4998 16.1335V18H18.9998V16.1335C18.9998 14.7145 16.1683 14 14.7498 14ZM14.0208 0.500006C13.624 0.499874 13.2311 0.577925 12.8646 0.729698C12.498 0.881471 12.1649 1.10399 11.8843 1.38454C11.6038 1.66509 11.3813 1.99818 11.2295 2.36476C11.0777 2.73135 10.9997 3.12425 10.9998 3.52101C10.9998 7.27101 15.7998 8.00001 15.7998 8.00001V6.54151H15.9788C16.3788 6.54665 16.7758 6.47232 17.1468 6.32282C17.5178 6.17332 17.8554 5.95163 18.1401 5.67062C18.4247 5.38961 18.6507 5.05486 18.805 4.68581C18.9592 4.31676 19.0387 3.92075 19.0387 3.52076C19.0387 3.12076 18.9592 2.72475 18.805 2.3557C18.6507 1.98665 18.4247 1.6519 18.1401 1.37089C17.8554 1.08988 17.5178 0.868189 17.1468 0.718691C16.7758 0.569193 16.3788 0.49486 15.9788 0.500006H14.0208Z" fill="#757575"/>
</svg>
